<svg xmlns="http://www.w3.org/2000/svg" viewBox="-8 80 1040 1040"><path d="M896.5 710.5q-24 0-52.25-3.75T778 694t-92.5-23.5Q613 650.5 613 600q0-51.5 72.5-70.5Q740 515 778 506.25t66.25-12.75 52.25-4q61 0 98.25 30.25c24.83 20.167 37.25 46.917 37.25 80.25s-12.42 60.083-37.25 80.25Q957.5 710.5 896.5 710.5M175 970q-17 0-32.5-14.5-16-15-16-32.5 0-22 26-49 11.5-11.5 33.5-30.75t49-41T288.75 760 336 725.5q7-5 13.5-7.5t12-2.5q8 0 14 6 5.5 5.5 5.5 14 0 10.5-10 25-14.5 20.5-34.75 47.5t-41.75 54-40.25 49.25T223.5 945q-12.5 12.5-24.75 18.75T175 970m-47.5-259.5q-61 0-98.25-30.25T-8 600t37.25-80.25 98.25-30.25q24.5 0 52.5 4t66.25 12.75T339 529.5q72 19.5 72 70.5 0 50.5-72 70.5-54.5 15-92.75 23.75T180 706.75t-52.5 3.75m0-40q21.5 0 47-3.5t62.5-12.25 92.5-23.25q22.5-6 32-13.25T371 600t-9.5-18.25-32-13.25Q274 553.5 237 545t-62.5-12-47-3.5q-44 0-69.75 19T32 600t25.75 51.5 69.75 19M512 1120c-33.333 0-60.083-12.42-80.25-37.25q-30.25-37.245-30.25-98.25 0-24.5 3.75-52.5t12.5-66.25T441.5 773q20-72 70.5-72 51 0 70.5 72 14.5 54.5 23.25 92.75T618.5 932t4 52.5q0 61.005-30.25 98.25C572.083 1107.58 545.333 1120 512 1120m0-40c21.667 0 38.833-8.58 51.5-25.75q19-25.755 19-69.75 0-21.5-3.5-47T567 875t-23.5-92.5q-6-22.5-13.25-32T512 741t-18.25 9.5-13.25 32Q466 838 457.25 875T445 937.5t-3.5 47q0 43.995 19 69.75c12.667 17.17 29.833 25.75 51.5 25.75M361.5 484.5q-5.5 0-12-2.5t-13.5-7.5q-20.5-14.5-47.25-34.75t-53.75-42-49-41T152.5 326q-26-27-26-49 0-17.5 16-32.5Q158 230 175 230q11.5 0 23.75 6.25T223.5 255q12 11.5 30.75 33.75T294.5 338t41.75 54T371 439.5q10 14.5 10 25 0 8.5-5.5 14-6 6-14 6M512 662q-26 0-44-18t-18-44 18-44 44-18 44 18 18 44-18 44-44 18m337 308q-11.5 0-23.5-6.25t-25-18.75q-12-11.5-30.75-33.75T729.5 862t-41.75-54T653 760.5q-10-14.5-10-25 0-8.5 5.5-14 6-6 14-6 5.5 0 12 2.5t13.5 7.5q20.5 14 47.25 34.5A2824 2824 0 0 1 789 802.25q27 21.75 49.25 41T871.5 874q26 27 26 49 0 17.5-16 32.5Q866 970 849 970M512 499q-51.5 0-70.5-72.5Q427 372 418.25 334t-12.75-66.25-4-52.25q0-61 30.25-98.25T512 80t80.25 37.25 30.25 98.25q0 24-3.75 52.25T606.25 334t-23.75 92.5Q562.5 499 512 499m384.5 171.5q44.5 0 70-19T992 600t-25.5-51.5-70-19q-21 0-46.5 3.5t-62.5 12-92.5 23.5q-23 6-32.5 13.25T653 600t9.5 18.25T695 631.5q55.5 14.5 92.5 23.25T850 667t46.5 3.5M512 459q11 0 18.25-9.5T543.5 417q15-55.5 23.5-92.5t12-62.5 3.5-46.5q0-44.5-19-70T512 120t-51.5 25.5-19 70q0 21 3.5 46.5t12.25 62.5T480.5 417q6 23 13.25 32.5T512 459m150.5 25.5q-8 0-14-6-5.5-5.5-5.5-14 0-10.5 10-25 14.5-20.5 34.75-47.5t41.75-54 40.25-49.25T800.5 255q13-12.5 25-18.75T849 230q17 0 32.5 14.5 16 15 16 32.5 0 22-26 49-11 11.5-33.25 30.75t-49.25 41-53.75 42T688 474.5q-7 5-13.5 7.5t-12 2.5"/></svg>