<!-- Uploaded to: SVG Repo, www.svgrepo.com, Generator: SVG Repo Mixer Tools -->
<svg version="1.1" id="Layer_1" xmlns="http://www.w3.org/2000/svg" xmlns:xlink="http://www.w3.org/1999/xlink" viewBox="0 0 512 512" xml:space="preserve" width="512" height="512">
  <path style="fill:#FEDE61;" d="m78.925 224.538 -1.545 -13.005c-0.306 -2.194 -0.58 -4.378 -0.58 -6.733 0 -65.341 30.762 -125.636 82.313 -161.28l27.622 -15.761c17.391 -7.834 36.036 -12.62 55.406 -14.217h27.698c19.38 1.605 38.025 6.383 55.406 14.217l27.622 15.753c51.563 35.652 82.333 95.947 82.333 161.287 0 2.355 -0.273 4.541 -0.58 6.723l-1.545 13.005H78.925z"/>
  <path style="fill:#BFA729;" d="M269.047 294.666c-7.569 0 -12.186 -0.239 -12.561 -0.264l-1.27 0.017c-0.052 0.009 -4.684 0.247 -12.27 0.247 -35.294 0 -120.883 -4.855 -153.353 -49.844l-14.636 -20.292h362.069l-14.625 20.291c-32.469 44.988 -118.059 49.844 -153.353 49.844"/>
  <path style="fill:#FFE7E5;" d="M256 499.2c-88.934 0 -161.28 -91.878 -161.28 -204.8 0 -4.319 0.341 -8.516 0.691 -12.716l1.834 -24.653 17.783 10.547c41.225 24.439 103.194 27.084 127.923 27.084 7.595 0 12.177 -0.239 12.356 -0.247l0.683 -0.034 0.7 0.034c0.18 0.009 4.763 0.247 12.356 0.247 24.705 0 86.595 -2.637 127.82 -27.017l17.809 -10.53 1.477 20.642c0.119 1.613 0.266 3.217 0.419 4.813 0.367 3.908 0.717 7.798 0.717 11.827 -0.009 112.925 -72.355 204.803 -161.289 204.803"/>
  <path style="fill:#000000;" d="M256 0C149.966 0 64 91.691 64 204.8c0 22.827 7.953 40.508 20.438 54.356 -1.519 11.486 -2.517 23.211 -2.517 35.244 0 120.175 77.942 217.6 174.08 217.6 96.145 0 174.08 -97.425 174.08 -217.6 0 -12.023 -1.05 -23.697 -2.577 -35.173 12.517 -13.859 20.497 -31.558 20.497 -54.427C448 91.691 362.034 0 256 0m0 486.4c-81.869 0 -148.48 -86.134 -148.48 -192 0 -5.384 0.597 -10.556 0.981 -15.805 43.587 25.847 107.281 28.877 134.452 28.877 8.175 0 13.047 -0.273 13.047 -0.273s4.864 0.273 13.047 0.273c27.145 0 90.752 -3.02 134.331 -28.8 0.375 5.239 1.102 10.359 1.102 15.727 0.002 105.866 -66.609 192 -148.48 192m13.047 -204.527c-7.014 0 -11.298 -0.213 -11.648 -0.23l-1.425 -0.077 -1.373 0.077c-0.341 0.017 -4.634 0.23 -11.648 0.23 -29.491 0 -113.57 -3.797 -142.967 -44.534h312.038c-29.397 40.73 -113.484 44.534 -142.977 44.534m152.628 -70.144H90.325c-0.266 -2.295 -0.725 -4.48 -0.725 -6.93 0 -63.275 30.686 -118.861 76.791 -150.758V128c0 7.073 5.727 12.8 12.8 12.8s12.8 -5.727 12.8 -12.8V39.423c15.956 -7.184 33.195 -11.639 51.2 -13.123v127.3c0 7.073 5.727 12.8 12.8 12.8s12.8 -5.727 12.8 -12.8V26.3c18.005 1.484 35.244 5.939 51.2 13.123V128c0 7.073 5.727 12.8 12.8 12.8s12.8 -5.727 12.8 -12.8V54.033c46.116 31.898 76.809 87.492 76.809 150.767 0 2.448 -0.461 4.634 -0.725 6.93"/>
</svg>
