<!-- Uploaded to: SVG Repo, www.svgrepo.com, Generator: SVG Repo Mixer Tools -->
<svg height="512px" width="512px" version="1.1" id="Layer_1" xmlns="http://www.w3.org/2000/svg" xmlns:xlink="http://www.w3.org/1999/xlink" viewBox="0 0 327.68 327.68" xml:space="preserve">
  <g transform="scale(1,1.2)">
    <path style="fill:#BC342E;" d="M0 280.868h40.96v-46.812H0z"/>
    <g>
      <path style="fill:#A52525;" d="M286.72 280.868h40.96v-46.812h-40.96z"/>
      <path style="fill:#A52525;" d="M40.96 280.868h81.92v-46.812H40.96z"/>
    </g>
    <path style="fill:#E15649;" d="M122.88 280.868h81.92v-46.812H122.88z"/>
    <path style="fill:#BC342E;" d="M204.8 280.868h81.92v-46.812H204.8z"/>
    <path style="fill:#E15649;" d="M0 234.057h81.92v-46.812H0z"/>
    <path style="fill:#BC342E;" d="M81.92 234.057h81.92v-46.812H81.92z"/>
    <path style="fill:#A52525;" d="M163.84 234.057h81.92v-46.812H163.84z"/>
    <path style="fill:#E15649;" d="M245.76 234.057h81.92v-46.812H245.76z"/>
    <path style="fill:#BC342E;" d="M0 187.245h40.96v-46.812H0z"/>
    <g>
      <path style="fill:#A52525;" d="M286.72 187.245h40.96v-46.812h-40.96z"/>
      <path style="fill:#A52525;" d="M40.96 187.245h81.92v-46.812H40.96z"/>
    </g>
    <path style="fill:#E15649;" d="M122.88 187.245h81.92v-46.812H122.88z"/>
    <path style="fill:#BC342E;" d="M204.8 187.245h81.92v-46.812H204.8z"/>
    <path style="fill:#E15649;" d="M0 140.435h81.92v-46.812H0z"/>
    <path style="fill:#BC342E;" d="M81.92 140.435h81.92v-46.812H81.92z"/>
    <path style="fill:#A52525;" d="M163.84 140.435h81.92v-46.812H163.84z"/>
    <path style="fill:#E15649;" d="M245.76 140.435h81.92v-46.812H245.76z"/>
    <path style="fill:#BC342E;" d="M0 93.623h40.96V46.812H0z"/>
    <g>
      <path style="fill:#A52525;" d="M286.72 93.623h40.96V46.812h-40.96z"/>
      <path style="fill:#A52525;" d="M40.96 93.623h81.92V46.812H40.96z"/>
    </g>
    <path style="fill:#E15649;" d="M122.88 93.623h81.92V46.812H122.88z"/>
    <path style="fill:#BC342E;" d="M204.8 93.623h81.92V46.812H204.8z"/>
    <path style="fill:#E15649;" d="M0 46.812h81.92V0H0z"/>
    <path style="fill:#BC342E;" d="M81.92 46.812h81.92V0H81.92z"/>
    <path style="fill:#A52525;" d="M163.84 46.812h81.92V0H163.84z"/>
    <path style="fill:#E15649;" d="M245.76 46.812h81.92V0H245.76z"/>
  </g>
</svg>
